M48
; DRILL file {KiCad 5.1.0-rc1-unknown-3b97961~76~ubuntu16.04.1} date lun 18 feb 2019 08:25:23 CET
; FORMAT={-:-/ absolute / inch / decimal}
; #@! TF.CreationDate,2019-02-18T08:25:23+01:00
; #@! TF.GenerationSoftware,Kicad,Pcbnew,5.1.0-rc1-unknown-3b97961~76~ubuntu16.04.1
FMAT,2
INCH
T1C0.0157
T2C0.0315
T3C0.0354
T4C0.0394
T5C0.0400
T6C0.0472
T7C0.0472
%
G90
G05
T1
X4.74Y-3.03
X4.74Y-3.22
X5.18Y-4.3
X5.81Y-3.34
X6.22Y-4.16
X6.25Y-3.34
X6.25Y-4.25
X6.3234Y-3.4966
X6.33Y-3.62
X6.3354Y-2.8254
X6.4Y-3.0424
X6.44Y-4.03
X6.5Y-3.04
X6.52Y-3.44
X6.87Y-4.72
X6.95Y-4.72
X7.02Y-3.72
X7.02Y-3.83
X7.02Y-3.92
X7.02Y-4.72
X7.09Y-4.72
X7.11Y-3.97
X7.22Y-2.7
X7.22Y-2.75
X7.29Y-3.6022
X7.3Y-4.51
X7.33Y-4.23
X7.35Y-3.6022
X7.37Y-4.51
X7.51Y-4.07
X7.51Y-4.18
X7.52Y-3.74
X7.52Y-4.61
X7.55Y-3.81
X7.55Y-3.88
X7.55Y-3.95
X7.55Y-4.03
X7.55Y-4.22
X7.55Y-4.22
X7.55Y-4.3
X7.55Y-4.38
X7.55Y-4.47
X7.55Y-4.54
T2
X6.52Y-2.87
X6.83Y-3.01
X4.54Y-2.82
X5.6Y-2.82
X5.8Y-4.72
X5.14Y-2.82
X4.34Y-2.81
X4.94Y-2.82
X5.7Y-2.82
X5.3Y-2.82
X5.2Y-4.72
X5.5Y-4.72
X5.0Y-4.72
X6.1Y-3.72
X6.0Y-3.82
X5.1Y-4.72
X5.5Y-2.82
X5.61Y-3.95
X5.61Y-4.05
X5.61Y-4.15
X5.61Y-4.25
X5.91Y-3.95
X5.91Y-4.05
X5.91Y-4.15
X5.91Y-4.25
X5.6Y-4.72
X6.5Y-4.53
X4.84Y-2.82
X5.7Y-4.72
X5.04Y-2.82
X4.64Y-2.82
X6.1Y-3.82
X5.4Y-2.82
X6.0Y-3.62
X4.24Y-2.81
X6.0Y-3.72
T3
X7.39Y-2.78
X7.39Y-2.88
X7.39Y-2.98
T4
X6.62Y-3.19
X6.62Y-3.3869
X6.8169Y-3.19
X6.8169Y-3.3869
X7.02Y-3.6196
X7.22Y-3.62
X4.15Y-3.0708
X4.15Y-3.37
X7.44Y-3.98
X7.44Y-4.08
X7.44Y-4.18
X7.44Y-4.41
X7.44Y-4.51
X7.44Y-4.61
X7.02Y-3.19
X7.22Y-3.1904
T5
X4.3398Y-2.623
X4.4398Y-2.623
X4.5398Y-2.623
X4.6398Y-2.623
X4.6998Y-4.523
X4.7398Y-2.623
X4.7998Y-4.523
X4.8398Y-2.623
X4.8998Y-4.523
X4.9398Y-2.623
X4.9998Y-4.523
X5.0398Y-2.623
X5.0998Y-4.523
X5.1398Y-2.623
X5.1998Y-4.523
X5.2398Y-2.623
X5.2998Y-4.523
X5.3998Y-2.623
X5.3998Y-4.523
X5.4998Y-2.623
X5.5998Y-2.623
X5.5998Y-4.523
X5.6998Y-2.623
X5.6998Y-4.523
X5.7998Y-2.623
X5.7998Y-4.523
X5.8998Y-2.623
X5.8998Y-4.523
X5.9998Y-2.623
X5.9998Y-4.523
X6.0998Y-2.623
X6.0998Y-4.523
X6.1048Y-3.423
X6.1048Y-3.523
X6.1048Y-3.623
X6.1998Y-4.523
X6.2048Y-3.423
X6.2048Y-3.523
X6.2048Y-3.623
X6.2998Y-2.623
X6.2998Y-4.523
X6.3998Y-2.623
X6.4998Y-2.623
X6.5998Y-2.623
X6.6998Y-2.623
X6.7998Y-2.623
X6.8998Y-2.623
X6.9998Y-2.623
T6
X7.2Y-4.72
X7.2Y-3.97
X7.2Y-4.51
T7
X7.44Y-3.1888
X7.44Y-3.3266
X7.44Y-3.4644
X7.44Y-3.6022
X7.44Y-3.74
T0
M30
