G04 #@! TF.GenerationSoftware,KiCad,Pcbnew,5.1.0-rc1-unknown-3b97961~76~ubuntu16.04.1*
G04 #@! TF.CreationDate,2019-02-18T08:25:29+01:00
G04 #@! TF.ProjectId,jbc_245,6a62635f-3234-4352-9e6b-696361645f70,rev?*
G04 #@! TF.SameCoordinates,Original*
G04 #@! TF.FileFunction,Paste,Top*
G04 #@! TF.FilePolarity,Positive*
%FSLAX46Y46*%
G04 Gerber Fmt 4.6, Leading zero omitted, Abs format (unit mm)*
G04 Created by KiCad (PCBNEW 5.1.0-rc1-unknown-3b97961~76~ubuntu16.04.1) date 2019-02-18 08:25:29*
%MOMM*%
%LPD*%
G04 APERTURE LIST*
%ADD10R,4.000000X2.500000*%
%ADD11R,0.970000X1.500000*%
%ADD12R,3.000000X1.600000*%
%ADD13R,1.500000X0.970000*%
%ADD14R,0.900000X0.800000*%
%ADD15R,0.800000X0.900000*%
%ADD16R,1.070000X1.800000*%
%ADD17R,2.200000X1.200000*%
%ADD18R,3.050000X2.750000*%
%ADD19R,1.600000X3.100000*%
%ADD20R,2.000000X0.640000*%
G04 APERTURE END LIST*
D10*
X147576000Y-80518000D03*
X141476000Y-80518000D03*
D11*
X154239000Y-102870000D03*
X156149000Y-102870000D03*
D10*
X173480000Y-73914000D03*
X179580000Y-73914000D03*
D12*
X129200000Y-108966000D03*
X124800000Y-108966000D03*
D11*
X165547000Y-104902000D03*
X163637000Y-104902000D03*
X134813000Y-109220000D03*
X132903000Y-109220000D03*
D13*
X138430000Y-103439000D03*
X138430000Y-105349000D03*
D11*
X154239000Y-100330000D03*
X156149000Y-100330000D03*
X168534000Y-112776000D03*
X166624000Y-112776000D03*
D13*
X163576000Y-80894000D03*
X163576000Y-82804000D03*
X163576000Y-74869000D03*
X163576000Y-72959000D03*
D12*
X160614000Y-90424000D03*
X165014000Y-90424000D03*
D11*
X154239000Y-112522000D03*
X156149000Y-112522000D03*
D13*
X163576000Y-71059000D03*
X163576000Y-69149000D03*
D14*
X156194000Y-108458000D03*
X154194000Y-109408000D03*
X154194000Y-107508000D03*
D15*
X162936000Y-109220000D03*
X161036000Y-109220000D03*
X161986000Y-111220000D03*
D16*
X119107000Y-81788000D03*
X116097000Y-81788000D03*
D14*
X114538000Y-78928000D03*
X114538000Y-77028000D03*
X112538000Y-77978000D03*
D11*
X171897000Y-104394000D03*
X169987000Y-104394000D03*
D13*
X165608000Y-98298000D03*
X165608000Y-96388000D03*
D11*
X154239000Y-105664000D03*
X156149000Y-105664000D03*
D13*
X163830000Y-86807000D03*
X163830000Y-84897000D03*
X184912000Y-73091000D03*
X184912000Y-71181000D03*
X170180000Y-71252000D03*
X170180000Y-69342000D03*
D11*
X165547000Y-107442000D03*
X163637000Y-107442000D03*
X147513000Y-112522000D03*
X145603000Y-112522000D03*
X119065000Y-79248000D03*
X117155000Y-79248000D03*
X119065000Y-76962000D03*
X117155000Y-76962000D03*
X187645000Y-68072000D03*
X185735000Y-68072000D03*
D13*
X158750000Y-111191000D03*
X158750000Y-109281000D03*
D11*
X161859000Y-112776000D03*
X163769000Y-112776000D03*
X147574000Y-97790000D03*
X145664000Y-97790000D03*
X145664000Y-95250000D03*
X147574000Y-95250000D03*
D17*
X160918000Y-82798000D03*
X160918000Y-78238000D03*
D18*
X152943000Y-78993000D03*
X156293000Y-82043000D03*
X152943000Y-82043000D03*
X156293000Y-78993000D03*
X156293000Y-71119000D03*
X152943000Y-74169000D03*
X156293000Y-74169000D03*
X152943000Y-71119000D03*
D17*
X160918000Y-70364000D03*
X160918000Y-74924000D03*
D19*
X168656000Y-101219000D03*
X173736000Y-92329000D03*
X171196000Y-101219000D03*
X171196000Y-92329000D03*
X173736000Y-101219000D03*
X168656000Y-92329000D03*
D20*
X168554000Y-107442000D03*
X168554000Y-109982000D03*
X174854000Y-109982000D03*
X174854000Y-107442000D03*
D11*
X179009000Y-86868000D03*
X177099000Y-86868000D03*
D13*
X161544000Y-86807000D03*
X161544000Y-84897000D03*
M02*
